<svg width="20" height="20" viewBox="0 0 20 20" fill="none" xmlns="http://www.w3.org/2000/svg">
<g id="iconNormal">
<path d="M18.3335 5H5.66683C3.45769 5 1.66683 6.79086 1.66683 9V14.3333C1.66683 16.5425 3.45769 18.3333 5.66683 18.3333H14.3335C16.5426 18.3333 18.3335 16.5425 18.3335 14.3333V5Z" stroke="#95A5B2" stroke-linejoin="round"/>
<path d="M18.3335 4.99996C18.3335 3.15901 16.8411 1.66663 15.0002 1.66663H10.0002C8.15922 1.66663 6.66683 3.15901 6.66683 4.99996V4.99996H18.3335V4.99996Z" stroke="#95A5B2" stroke-linejoin="round"/>
<path d="M1.6665 10L1.6665 13.3333L4.99984 13.3333C5.92031 13.3333 6.6665 12.5871 6.6665 11.6667V11.6667C6.6665 10.7462 5.92031 10 4.99984 10L1.6665 10Z" stroke="#95A5B2" stroke-linejoin="round"/>
</g>
<path id="iconACtive" xmlns="http://www.w3.org/2000/svg" fill-rule="evenodd" clip-rule="evenodd" d="M9.99934 1.66699H14.9993C16.3982 1.66699 17.5959 2.52873 18.0904 3.75033H6.9083C7.40279 2.52873 8.60043 1.66699 9.99934 1.66699ZM1.66602 10.0003V13.3337H4.99935C5.91982 13.3337 6.66602 12.5875 6.66602 11.667C6.66602 10.7465 5.91982 10.0003 4.99935 10.0003H1.66602ZM18.3327 5.00033H5.66602C3.54084 5.00033 1.80275 6.65764 1.6737 8.75033L4.99935 8.75033C6.61018 8.75033 7.91601 10.0562 7.91601 11.667C7.91601 13.2778 6.61018 14.5837 4.99935 14.5837H1.6737C1.80275 16.6763 3.54084 18.3337 5.66602 18.3337H14.3327C16.5418 18.3337 18.3327 16.5428 18.3327 14.3337V5.00033Z" fill="#fdff12"/>
</svg>
