<svg width="16" height="16" viewBox="0 0 16 16" fill="none" xmlns="http://www.w3.org/2000/svg">
<path fill-rule="evenodd" clip-rule="evenodd" d="M8.03483 0.833497H7.9655C7.36652 0.833478 6.86703 0.833462 6.47051 0.886773C6.05198 0.943042 5.67412 1.06682 5.37047 1.37047C5.06682 1.67412 4.94304 2.05198 4.88677 2.47051C4.83346 2.86703 4.83348 3.36651 4.8335 3.96549V4.01731C4.71853 4.02107 4.60748 4.02566 4.50016 4.03125V9.50018L6.68981 9.50017C6.82655 9.50012 6.97441 9.50006 7.09922 9.51684C7.24544 9.5365 7.43223 9.58705 7.58943 9.74425C7.74663 9.90145 7.79719 10.0882 7.81685 10.2345C7.83363 10.3593 7.83357 10.5071 7.83351 10.6439V11.3565C7.83357 11.4932 7.83363 11.6411 7.81685 11.7659C7.79719 11.9121 7.74663 12.0989 7.58943 12.2561C7.43223 12.4133 7.24544 12.4639 7.09922 12.4835C6.97442 12.5003 6.82656 12.5002 6.68983 12.5002L4.50016 12.5002V14.6357C5.09657 14.6668 5.80843 14.6668 6.66683 14.6668H9.3335C10.1919 14.6668 10.9038 14.6668 11.5002 14.6357V4.03125C11.3929 4.02566 11.2818 4.02107 11.1668 4.01731V3.9655C11.1669 3.36652 11.1669 2.86703 11.1136 2.47051C11.0573 2.05198 10.9335 1.67412 10.6299 1.37047C10.3262 1.06682 9.94835 0.943042 9.52982 0.886773C9.1333 0.833462 8.63381 0.833478 8.03483 0.833497ZM10.1668 4.00142V4.00016C10.1668 3.35749 10.1658 2.92578 10.1225 2.60376C10.0811 2.29612 10.0096 2.16445 9.92275 2.07758C9.83588 1.9907 9.70421 1.91922 9.39657 1.87786C9.07455 1.83456 8.64284 1.8335 8.00016 1.8335C7.35749 1.8335 6.92578 1.83456 6.60376 1.87786C6.29612 1.91922 6.16445 1.9907 6.07758 2.07758C5.9907 2.16445 5.91922 2.29612 5.87785 2.60376C5.83456 2.92578 5.8335 3.35749 5.8335 4.00016V4.00142C6.09485 4.00016 6.37221 4.00016 6.66683 4.00016H9.3335C9.62812 4.00016 9.90548 4.00016 10.1668 4.00142Z" fill="white"/>
<path d="M13.8858 13.8858C13.5399 14.2317 13.1006 14.4244 12.5002 14.5318V4.13524C13.1006 4.2426 13.5399 4.43531 13.8858 4.78121C14.6668 5.56226 14.6668 6.81934 14.6668 9.3335C14.6668 11.8477 14.6668 13.1047 13.8858 13.8858Z" fill="white"/>
<path d="M2.11454 4.78121C2.46044 4.43531 2.8997 4.2426 3.50016 4.13524V9.5279C3.36672 9.55387 3.21143 9.61041 3.07759 9.74425C2.92039 9.90145 2.86983 10.0882 2.85017 10.2345C2.83339 10.3593 2.83345 10.5071 2.8335 10.6439V11.3565C2.83345 11.4932 2.83339 11.6411 2.85017 11.7659C2.86983 11.9121 2.92039 12.0989 3.07759 12.2561C3.21143 12.3899 3.36672 12.4465 3.50016 12.4725V14.5318C2.8997 14.4244 2.46044 14.2317 2.11454 13.8858C1.3335 13.1047 1.3335 11.8477 1.3335 9.3335C1.3335 6.81934 1.3335 5.56226 2.11454 4.78121Z" fill="white"/>
<path d="M3.83428 10.5009C3.83353 10.5472 3.83351 10.6008 3.83351 10.6668V11.3335C3.83351 11.3996 3.83353 11.4531 3.83428 11.4994C3.88058 11.5002 3.93412 11.5002 4.00018 11.5002H6.66684C6.73289 11.5002 6.78644 11.5002 6.83274 11.4994C6.83349 11.4531 6.83351 11.3996 6.83351 11.3335V10.6668C6.83351 10.6008 6.83349 10.5472 6.83274 10.5009C6.78644 10.5002 6.73289 10.5002 6.66684 10.5002H4.00017C3.93412 10.5002 3.88058 10.5002 3.83428 10.5009Z" fill="white"/>
</svg>
