<svg width="18" height="18" viewBox="0 0 18 18" fill="none" xmlns="http://www.w3.org/2000/svg">
<g id="iconNormal">
<path d="M12.3332 8.16675C11.4127 8.16675 10.6665 8.91294 10.6665 9.83342V11.5001C10.6665 12.4206 11.4127 13.1667 12.3332 13.1667C13.2536 13.1667 13.9998 12.4206 13.9998 11.5001V9.83342C13.9998 8.91294 13.2536 8.16675 12.3332 8.16675Z" stroke="#95A5B2"/>
<path d="M5.6665 4.83341C4.74603 4.83341 3.99984 5.57961 3.99984 6.50008L3.99984 11.5001C3.99984 12.4206 4.74603 13.1667 5.6665 13.1667C6.58698 13.1667 7.33317 12.4206 7.33317 11.5001V6.50008C7.33317 5.57961 6.58698 4.83341 5.6665 4.83341Z" stroke="#95A5B2"/>
<path d="M0.666504 4.00008C0.666504 2.15913 2.15889 0.666748 3.99984 0.666748H13.9998C15.8408 0.666748 17.3332 2.15913 17.3332 4.00008V14.0001C17.3332 15.841 15.8408 17.3334 13.9998 17.3334H3.99984C2.15889 17.3334 0.666504 15.841 0.666504 14.0001V4.00008Z" stroke="#95A5B2"/>
</g>
<g id="iconACtive">
<path xmlns="http://www.w3.org/2000/svg" fill-rule="evenodd" clip-rule="evenodd" d="M0.666504 4.66797C0.666504 2.45883 2.45736 0.667969 4.6665 0.667969H13.3332C15.5423 0.667969 17.3332 2.45883 17.3332 4.66797V13.3346C17.3332 15.5438 15.5423 17.3346 13.3332 17.3346H4.66651C2.45737 17.3346 0.666504 15.5438 0.666504 13.3346V4.66797ZM12.3332 8.16797C11.4127 8.16797 10.6665 8.91416 10.6665 9.83464V11.5013C10.6665 12.4218 11.4127 13.168 12.3332 13.168C13.2536 13.168 13.9998 12.4218 13.9998 11.5013V9.83464C13.9998 8.91416 13.2536 8.16797 12.3332 8.16797ZM3.99984 6.5013C3.99984 5.58083 4.74603 4.83464 5.6665 4.83464C6.58698 4.83464 7.33317 5.58083 7.33317 6.5013L7.33317 11.5013C7.33317 12.4218 6.58698 13.168 5.6665 13.168C4.74603 13.168 3.99984 12.4218 3.99984 11.5013V6.5013Z" fill="#fdff12"/>
</g>
</svg>
