<svg width="16" height="16" viewBox="0 0 16 16" fill="none" xmlns="http://www.w3.org/2000/svg">
<path d="M5.06911 3.06935C6.22635 1.91212 6.80497 1.3335 7.52398 1.3335C8.243 1.3335 8.82162 1.91212 9.97886 3.06935L12.9247 6.0152C14.0819 7.17244 14.6606 7.75106 14.6606 8.47008C14.6606 9.18909 14.0819 9.76771 12.9247 10.925C11.7675 12.0822 11.1888 12.6608 10.4698 12.6608C9.75082 12.6608 9.1722 12.0822 8.01496 10.925L5.06911 7.9791C3.91187 6.82186 3.33325 6.24325 3.33325 5.52423C3.33325 4.80521 3.91187 4.22659 5.06911 3.06935Z" fill="white"/>
<path d="M4.85592 9.18012L1.88379 12.1522C1.6555 12.3805 1.54135 12.4947 1.47279 12.6134C1.28674 12.9357 1.28674 13.3327 1.47279 13.655C1.54135 13.7737 1.65549 13.8878 1.88377 14.1161C2.11207 14.3444 2.22624 14.4586 2.34498 14.5272C2.66723 14.7132 3.06425 14.7132 3.3865 14.5272C3.50525 14.4586 3.6194 14.3444 3.84769 14.1161L6.81981 11.144L4.85592 9.18012Z" fill="white" fill-opacity="0.88"/>
<path d="M5.56302 8.47302L5.56595 8.47009L7.52985 10.434L7.52692 10.4369L5.56302 8.47302Z" fill="white" fill-opacity="0.88"/>
<path d="M13.1123 4.78857C13.2821 4.4717 13.2768 4.08859 13.0962 3.77589C13.0277 3.65714 12.9135 3.543 12.6852 3.3147C12.4569 3.0864 12.3428 2.97226 12.224 2.9037C11.9113 2.72316 11.5282 2.71781 11.2114 2.88765L13.1123 4.78857Z" fill="white" fill-opacity="0.88"/>
</svg>
