<svg width="20" height="20" viewBox="0 0 20 20" fill="none" xmlns="http://www.w3.org/2000/svg">
<path id="iconNormal" d="M8.33318 10.8333L7.97963 11.1868C8.12263 11.3298 8.33769 11.3726 8.52453 11.2952C8.71136 11.2178 8.83318 11.0355 8.83318 10.8333H8.33318ZM11.6665 10.8333H11.1665C11.1665 11.1094 11.3904 11.3333 11.6665 11.3333V10.8333ZM7.15467 9.65478L6.80112 10.0083H6.80112L7.15467 9.65478ZM4.40425 11.523L3.94906 11.7299L4.40425 11.523ZM6.61167 16.3793L7.06686 16.1724L6.61167 16.3793ZM15.9596 16.6538L15.5255 16.4057H15.5255L15.9596 16.6538ZM16.2273 16.1852L16.6614 16.4333L16.6614 16.4333L16.2273 16.1852ZM4.49985 6.66663C4.49985 6.94277 4.72371 7.16663 4.99985 7.16663C5.27599 7.16663 5.49985 6.94277 5.49985 6.66663H4.49985ZM14.4999 6.66663C14.4999 6.94277 14.7237 7.16663 14.9999 7.16663C15.276 7.16663 15.4999 6.94277 15.4999 6.66663H14.4999ZM8.83318 10.8333V5.83329H7.83318V10.8333H8.83318ZM11.1665 5.83329V10.8333H12.1665V5.83329H11.1665ZM11.6665 11.3333H13.3332V10.3333H11.6665V11.3333ZM13.0654 17.8333H9.64623V18.8333H13.0654V17.8333ZM5.92152 9.66663H5.97616V8.66663H5.92152V9.66663ZM6.80112 10.0083L7.97963 11.1868L8.68674 10.4797L7.50823 9.30123L6.80112 10.0083ZM3.94906 11.7299L6.15649 16.5862L7.06686 16.1724L4.85943 11.3161L3.94906 11.7299ZM16.3937 16.9018L16.6614 16.4333L15.7932 15.9371L15.5255 16.4057L16.3937 16.9018ZM17.1665 14.5314V14.1666H16.1665V14.5314H17.1665ZM16.6614 16.4333C16.9924 15.8541 17.1665 15.1985 17.1665 14.5314H16.1665C16.1665 15.0245 16.0378 15.509 15.7932 15.9371L16.6614 16.4333ZM5.97616 9.66663C6.28558 9.66663 6.58233 9.78954 6.80112 10.0083L7.50823 9.30123C7.1019 8.8949 6.5508 8.66663 5.97616 8.66663V9.66663ZM5.92152 8.66663C4.34573 8.66663 3.297 10.2953 3.94906 11.7299L4.85943 11.3161C4.50832 10.5436 5.07302 9.66663 5.92152 9.66663V8.66663ZM13.0654 18.8333C14.4411 18.8333 15.7112 18.0962 16.3937 16.9018L15.5255 16.4057C15.021 17.2885 14.0822 17.8333 13.0654 17.8333V18.8333ZM13.3332 11.3333C14.898 11.3333 16.1665 12.6018 16.1665 14.1666H17.1665C17.1665 12.0495 15.4503 10.3333 13.3332 10.3333V11.3333ZM9.99985 4.66663C10.6442 4.66663 11.1665 5.18896 11.1665 5.83329H12.1665C12.1665 4.63668 11.1965 3.66663 9.99985 3.66663V4.66663ZM9.64623 17.8333C8.53516 17.8333 7.52662 17.1839 7.06686 16.1724L6.15649 16.5862C6.77853 17.9547 8.14301 18.8333 9.64623 18.8333V17.8333ZM8.83318 5.83329C8.83318 5.18896 9.35552 4.66663 9.99985 4.66663V3.66663C8.80323 3.66663 7.83318 4.63668 7.83318 5.83329H8.83318ZM5.49985 6.66663C5.49985 4.18134 7.51457 2.16663 9.99985 2.16663V1.16663C6.96228 1.16663 4.49985 3.62906 4.49985 6.66663H5.49985ZM9.99985 2.16663C12.4851 2.16663 14.4999 4.18134 14.4999 6.66663H15.4999C15.4999 3.62906 13.0374 1.16663 9.99985 1.16663V2.16663Z" fill="#95A5B2"/>
<path id="iconACtive" xmlns="http://www.w3.org/2000/svg" fill-rule="evenodd" clip-rule="evenodd" d="M5.62491 6.66666C5.62491 4.25041 7.58366 2.29166 9.99991 2.29166C12.4162 2.29166 14.3749 4.25041 14.3749 6.66666C14.3749 7.01183 14.6547 7.29166 14.9999 7.29166C15.3451 7.29166 15.6249 7.01183 15.6249 6.66666C15.6249 3.56005 13.1065 1.04166 9.99991 1.04166C6.8933 1.04166 4.37491 3.56005 4.37491 6.66666C4.37491 7.01183 4.65473 7.29166 4.99991 7.29166C5.34508 7.29166 5.62491 7.01183 5.62491 6.66666ZM8.33324 10.8333V5.83332C8.33324 4.91285 9.07943 4.16666 9.9999 4.16666C10.9204 4.16666 11.6666 4.91285 11.6666 5.83332V10.8333H13.045C15.0451 10.8333 16.6666 12.4548 16.6666 14.4549C16.6666 15.0851 16.5021 15.7045 16.1894 16.2517L16.1433 16.3323C15.4363 17.5697 14.1204 18.3333 12.6953 18.3333H10.0756C8.50698 18.3333 7.08317 17.4165 6.43409 15.9885L4.42215 11.5623C3.9122 10.4404 4.73236 9.16666 5.96471 9.16666C6.41411 9.16666 6.84509 9.34518 7.16286 9.66295L8.33324 10.8333Z" fill="#fdff12"/>
</svg>