<svg width="20" height="20" viewBox="0 0 20 20" fill="none" xmlns="http://www.w3.org/2000/svg">
<path id="iconNormal" d="M17.5 15L10.6769 18.0325C10.246 18.224 9.75404 18.224 9.3231 18.0325L2.5 15M17.5 10.8333L10.6769 13.8658C10.246 14.0574 9.75404 14.0574 9.3231 13.8658L2.5 10.8333M3.15738 6.5787L9.25464 9.62734C9.72386 9.86194 10.2761 9.86194 10.7454 9.62734L16.8426 6.5787C17.4568 6.2716 17.4568 5.39509 16.8426 5.08799L10.7454 2.03936C10.2761 1.80475 9.72386 1.80475 9.25464 2.03936L3.15738 5.08799C2.54317 5.39509 2.54317 6.2716 3.15738 6.5787Z" stroke="#95A5B2" stroke-linecap="round" stroke-linejoin="round"/>
<path id="iconACtive" xmlns="http://www.w3.org/2000/svg" fill-rule="evenodd" clip-rule="evenodd" d="M8.97535 1.89721C9.62052 1.57463 10.3799 1.57463 11.0251 1.89721L17.1223 4.94584C18.1972 5.48328 18.1972 7.01716 17.1223 7.55459L11.0251 10.6032C10.3799 10.9258 9.62052 10.9258 8.97535 10.6032L2.87809 7.55459C1.80322 7.01716 1.80323 5.48327 2.87809 4.94584L8.97535 1.89721ZM1.92902 14.3297C2.06921 14.0142 2.43856 13.8722 2.75399 14.0124L9.57709 17.0448C9.84643 17.1646 10.1539 17.1646 10.4232 17.0448L17.2463 14.0124C17.5617 13.8722 17.9311 14.0142 18.0713 14.3297C18.2115 14.6451 18.0694 15.0144 17.754 15.1546L10.9309 18.1871C10.3383 18.4505 9.66197 18.4505 9.06942 18.1871L2.24632 15.1546C1.93089 15.0144 1.78883 14.6451 1.92902 14.3297ZM2.75399 10.2624C2.43856 10.1222 2.06921 10.2642 1.92902 10.5797C1.78883 10.8951 1.93089 11.2644 2.24632 11.4046L9.06942 14.4371C9.66197 14.7005 10.3383 14.7005 10.9309 14.4371L17.754 11.4046C18.0694 11.2644 18.2115 10.8951 18.0713 10.5797C17.9311 10.2642 17.5617 10.1222 17.2463 10.2624L10.4232 13.2948C10.1539 13.4146 9.84643 13.4146 9.57709 13.2948L2.75399 10.2624Z" fill="#fdff12"/>
</svg>

