<svg width="18" height="18" viewBox="0 0 18 18" fill="none" xmlns="http://www.w3.org/2000/svg">
<path id="iconNormal" fill-rule="evenodd" clip-rule="evenodd" d="M0.666504 4.00008C0.666504 2.15913 2.15889 0.666748 3.99984 0.666748H13.9998C15.8408 0.666748 17.3332 2.15913 17.3332 4.00008V5.04175H5.6665H0.666504V4.00008ZM0.666504 6.29175V14.0001C0.666504 15.841 2.15889 17.3334 3.99984 17.3334H5.0415V11.5001V6.29175H0.666504ZM6.2915 17.3334H13.9998C15.8408 17.3334 17.3332 15.841 17.3332 14.0001V12.1251L6.2915 12.1251V17.3334ZM17.3332 10.8751V6.29175H6.2915V10.8751L17.3332 10.8751Z" fill="#95A5B2"/>
<path id="iconACtive" fill-rule="evenodd" clip-rule="evenodd" d="M0.666504 4.00008C0.666504 2.15913 2.15889 0.666748 3.99984 0.666748H13.9998C15.8408 0.666748 17.3332 2.15913 17.3332 4.00008V5.04175H5.6665H0.666504V4.00008ZM0.666504 6.29175V14.0001C0.666504 15.841 2.15889 17.3334 3.99984 17.3334H5.0415V11.5001V6.29175H0.666504ZM6.2915 17.3334H13.9998C15.8408 17.3334 17.3332 15.841 17.3332 14.0001V12.1251L6.2915 12.1251V17.3334ZM17.3332 10.8751V6.29175H6.2915V10.8751L17.3332 10.8751Z" fill="#fdff12"/>
</svg>
