<svg width="16" height="16" viewBox="0 0 16 16" fill="none" xmlns="http://www.w3.org/2000/svg">
<path d="M3.71218 10.1668L1.57531 12.3037C1.3335 11.3277 1.3335 9.9738 1.3335 8.00016C1.3335 4.85747 1.3335 3.28612 2.30981 2.30981C3.28612 1.3335 4.85747 1.3335 8.00016 1.3335C11.1429 1.3335 12.7142 1.3335 13.6905 2.30981C14.6668 3.28612 14.6668 4.85747 14.6668 8.00016C14.6668 11.1429 14.6668 12.7142 13.6905 13.6905C12.7142 14.6668 11.1429 14.6668 8.00016 14.6668C6.02653 14.6668 4.67262 14.6668 3.69663 14.425L5.8335 12.2881V12.6668C5.8335 13.4953 6.50507 14.1668 7.3335 14.1668C8.16192 14.1668 8.8335 13.4953 8.8335 12.6668V8.66683C8.8335 7.8384 8.16192 7.16683 7.3335 7.16683H3.3335C2.50507 7.16683 1.8335 7.8384 1.8335 8.66683C1.8335 9.49526 2.50507 10.1668 3.3335 10.1668H3.71218Z" fill="white"/>
<path d="M3.3335 8.16683C3.05735 8.16683 2.8335 8.39069 2.8335 8.66683C2.8335 8.94297 3.05735 9.16683 3.3335 9.16683H6.12639L1.64661 13.6466C1.45135 13.8419 1.45135 14.1585 1.64661 14.3537C1.84187 14.549 2.15845 14.549 2.35372 14.3537L6.8335 9.87394V12.6668C6.8335 12.943 7.05735 13.1668 7.3335 13.1668C7.60964 13.1668 7.8335 12.943 7.8335 12.6668V8.66683C7.8335 8.39069 7.60964 8.16683 7.3335 8.16683H3.3335Z" fill="white"/>
</svg>
