<svg width="20" height="20" viewBox="0 0 20 20" fill="none" xmlns="http://www.w3.org/2000/svg">
<path id="iconNormal" d="M7.14628 9.64641C6.95102 9.84167 6.95102 10.1583 7.14628 10.3535C7.34155 10.5488 7.65813 10.5488 7.85339 10.3535L7.14628 9.64641ZM9.10339 9.10351C9.29865 8.90825 9.29865 8.59167 9.10339 8.39641C8.90813 8.20114 8.59155 8.20114 8.39628 8.39641L9.10339 9.10351ZM6.33317 11.5L5.93317 11.8L6.33317 11.5ZM7.33317 12.8333L7.73317 12.5333L7.33317 12.8333ZM12.6665 12.8333L12.2665 12.5333L12.6665 12.8333ZM13.6665 11.5L13.2665 11.2L13.6665 11.5ZM11.9998 7.08329C11.9998 7.95774 11.291 8.66663 10.4165 8.66663V9.66663C11.8432 9.66663 12.9998 8.51003 12.9998 7.08329H11.9998ZM10.4165 8.66663C9.54205 8.66663 8.83317 7.95774 8.83317 7.08329H7.83317C7.83317 8.51003 8.98977 9.66663 10.4165 9.66663V8.66663ZM8.83317 7.08329C8.83317 6.20884 9.54205 5.49996 10.4165 5.49996V4.49996C8.98977 4.49996 7.83317 5.65656 7.83317 7.08329H8.83317ZM10.4165 5.49996C11.291 5.49996 11.9998 6.20884 11.9998 7.08329H12.9998C12.9998 5.65656 11.8432 4.49996 10.4165 4.49996V5.49996ZM7.85339 10.3535L9.10339 9.10351L8.39628 8.39641L7.14628 9.64641L7.85339 10.3535ZM17.8332 13.3333V15.8333H18.8332V13.3333H17.8332ZM15.8332 17.8333H4.1665V18.8333H15.8332V17.8333ZM2.1665 15.8333V13.3333H1.1665V15.8333H2.1665ZM4.1665 11.3333H4.99984V10.3333H4.1665V11.3333ZM5.93317 11.8L6.93317 13.1333L7.73317 12.5333L6.73317 11.2L5.93317 11.8ZM14.9998 11.3333H15.8332V10.3333H14.9998V11.3333ZM13.0665 13.1333L14.0665 11.8L13.2665 11.2L12.2665 12.5333L13.0665 13.1333ZM9.99984 14.6666C11.2064 14.6666 12.3426 14.0985 13.0665 13.1333L12.2665 12.5333C11.7314 13.2467 10.8916 13.6666 9.99984 13.6666V14.6666ZM14.9998 10.3333C14.3179 10.3333 13.6757 10.6544 13.2665 11.2L14.0665 11.8C14.2868 11.5062 14.6326 11.3333 14.9998 11.3333V10.3333ZM6.93317 13.1333C7.65711 14.0985 8.79327 14.6666 9.99984 14.6666V13.6666C9.10802 13.6666 8.26826 13.2467 7.73317 12.5333L6.93317 13.1333ZM4.99984 11.3333C5.36705 11.3333 5.71284 11.5062 5.93317 11.8L6.73317 11.2C6.32399 10.6544 5.68181 10.3333 4.99984 10.3333V11.3333ZM4.1665 17.8333C3.06193 17.8333 2.1665 16.9379 2.1665 15.8333H1.1665C1.1665 17.4901 2.50965 18.8333 4.1665 18.8333V17.8333ZM17.8332 15.8333C17.8332 16.9379 16.9377 17.8333 15.8332 17.8333V18.8333C17.49 18.8333 18.8332 17.4901 18.8332 15.8333H17.8332ZM18.8332 13.3333C18.8332 11.6764 17.49 10.3333 15.8332 10.3333V11.3333C16.9377 11.3333 17.8332 12.2287 17.8332 13.3333H18.8332ZM2.1665 13.3333C2.1665 12.2287 3.06193 11.3333 4.1665 11.3333V10.3333C2.50965 10.3333 1.1665 11.6764 1.1665 13.3333H2.1665ZM17.1665 10.8333V4.99996H16.1665V10.8333H17.1665ZM13.3332 1.16663H6.6665V2.16663H13.3332V1.16663ZM2.83317 4.99996V10.8333H3.83317V4.99996H2.83317ZM6.6665 1.16663C4.54941 1.16663 2.83317 2.88287 2.83317 4.99996H3.83317C3.83317 3.43515 5.1017 2.16663 6.6665 2.16663V1.16663ZM17.1665 4.99996C17.1665 2.88287 15.4503 1.16663 13.3332 1.16663V2.16663C14.898 2.16663 16.1665 3.43515 16.1665 4.99996H17.1665Z" fill="#95A5B2"/>
<path id="iconACtive" xmlns="http://www.w3.org/2000/svg" fill-rule="evenodd" clip-rule="evenodd" d="M16.6641 9.67622V5.66662C16.6641 3.45748 14.8732 1.66663 12.6641 1.66663H7.33073C5.12159 1.66663 3.33073 3.45749 3.33073 5.66663V9.67622C3.59874 9.6154 3.87765 9.58329 4.16406 9.58329H4.9974C5.91544 9.58329 6.7799 10.0155 7.33073 10.75L8.33073 12.0833C8.72418 12.6079 9.34165 12.9166 9.9974 12.9166C10.6531 12.9166 11.2706 12.6079 11.6641 12.0833L12.6641 10.75C13.2149 10.0155 14.0794 9.58329 14.9974 9.58329H15.8307C16.1171 9.58329 16.3961 9.6154 16.6641 9.67622ZM8.95573 6.24996C8.95573 5.44454 9.60865 4.79163 10.4141 4.79163C11.2195 4.79163 11.8724 5.44454 11.8724 6.24996C11.8724 7.05537 11.2195 7.70829 10.4141 7.70829C9.60865 7.70829 8.95573 7.05537 8.95573 6.24996ZM10.4141 3.54163C8.91829 3.54163 7.70573 4.75419 7.70573 6.24996C7.70573 6.77141 7.8531 7.25844 8.10846 7.67168L7.05545 8.72468C6.81138 8.96876 6.81138 9.36449 7.05545 9.60857C7.29953 9.85265 7.69526 9.85265 7.93934 9.60857L8.99234 8.55556C9.40558 8.81092 9.89261 8.95829 10.4141 8.95829C11.9098 8.95829 13.1224 7.74573 13.1224 6.24996C13.1224 4.75419 11.9098 3.54163 10.4141 3.54163ZM18.3307 13.8333V15.3333C18.3307 16.9901 16.9876 18.3333 15.3307 18.3333H4.66406C3.00721 18.3333 1.66406 16.9901 1.66406 15.3333V13.8333C1.66406 12.1764 3.00721 10.8333 4.66406 10.8333H4.83073C5.46024 10.8333 6.05302 11.1297 6.43073 11.6333L7.33073 12.8333C7.96024 13.6726 8.9482 14.1666 9.9974 14.1666C11.0466 14.1666 12.0345 13.6726 12.6641 12.8333L13.5641 11.6333C13.9418 11.1297 14.5345 10.8333 15.1641 10.8333H15.3307C16.9876 10.8333 18.3307 12.1764 18.3307 13.8333Z" fill="#fdff12"/>
</svg>
